<svg width="1510" height="519" viewBox="0 0 1510 519" fill="none" xmlns="http://www.w3.org/2000/svg">
<g clip-path="url(#clip0_1_2)">
<rect width="1510" height="519" fill="white"/>
<path d="M177.957 344.696H208.391M132.304 436V253.391H284.478V344.696H208.391M208.391 344.696L284.478 436M41 222.957C113.925 184.249 163.34 155.237 208.391 86C252.756 153.184 301.624 182.888 375.783 222.957" stroke="#F43F5E" stroke-width="45"/>
<path d="M487 207.5C503.167 207.5 516.5 209.5 527 213.5C537.667 217.333 545.667 223.25 551 231.25C556.333 239.083 559 248.917 559 260.75C559 268.417 557.583 275.25 554.75 281.25C551.917 287.25 548.083 292.5 543.25 297C538.583 301.5 533.167 305.25 527 308.25L579.25 386H531.5L491.25 319H474.5V386H432V207.5H487ZM485.25 241H474.5V285.75H485.25C492.083 285.75 497.75 285 502.25 283.5C506.75 281.833 510.083 279.25 512.25 275.75C514.583 272.083 515.75 267.583 515.75 262.25C515.75 257.417 514.667 253.5 512.5 250.5C510.333 247.333 507 245 502.5 243.5C498 241.833 492.25 241 485.25 241ZM723.742 317C723.742 328.5 722.159 338.667 718.992 347.5C715.992 356.333 711.492 363.833 705.492 370C699.659 376.167 692.576 380.833 684.242 384C676.076 387 666.659 388.5 655.992 388.5C646.326 388.5 637.326 387 628.992 384C620.826 380.833 613.742 376.25 607.742 370.25C601.909 364.083 597.326 356.583 593.992 347.75C590.659 338.75 588.992 328.5 588.992 317C588.992 301.833 591.659 289 596.992 278.5C602.492 268 610.326 260 620.492 254.5C630.659 249 642.742 246.25 656.742 246.25C669.909 246.25 681.492 249 691.492 254.5C701.492 260 709.326 268 714.992 278.5C720.826 289 723.742 301.833 723.742 317ZM631.742 317C631.742 325.5 632.576 332.667 634.242 338.5C635.909 344.333 638.576 348.75 642.242 351.75C645.909 354.583 650.659 356 656.492 356C662.492 356 667.242 354.583 670.742 351.75C674.242 348.75 676.826 344.333 678.492 338.5C680.159 332.667 680.992 325.5 680.992 317C680.992 308.5 680.159 301.417 678.492 295.75C676.826 290.083 674.159 285.833 670.492 283C666.992 280.167 662.242 278.75 656.242 278.75C647.742 278.75 641.492 282 637.492 288.5C633.659 294.833 631.742 304.333 631.742 317ZM880.48 317C880.48 328.5 878.897 338.667 875.73 347.5C872.73 356.333 868.23 363.833 862.23 370C856.397 376.167 849.314 380.833 840.98 384C832.814 387 823.397 388.5 812.73 388.5C803.064 388.5 794.064 387 785.73 384C777.564 380.833 770.48 376.25 764.48 370.25C758.647 364.083 754.064 356.583 750.73 347.75C747.397 338.75 745.73 328.5 745.73 317C745.73 301.833 748.397 289 753.73 278.5C759.23 268 767.064 260 777.23 254.5C787.397 249 799.48 246.25 813.48 246.25C826.647 246.25 838.23 249 848.23 254.5C858.23 260 866.064 268 871.73 278.5C877.564 289 880.48 301.833 880.48 317ZM788.48 317C788.48 325.5 789.314 332.667 790.98 338.5C792.647 344.333 795.314 348.75 798.98 351.75C802.647 354.583 807.397 356 813.23 356C819.23 356 823.98 354.583 827.48 351.75C830.98 348.75 833.564 344.333 835.23 338.5C836.897 332.667 837.73 325.5 837.73 317C837.73 308.5 836.897 301.417 835.23 295.75C833.564 290.083 830.897 285.833 827.23 283C823.73 280.167 818.98 278.75 812.98 278.75C804.48 278.75 798.23 282 794.23 288.5C790.397 294.833 788.48 304.333 788.48 317ZM1073.72 246.25C1089.39 246.25 1101.22 250.25 1109.22 258.25C1117.39 266.083 1121.47 278.833 1121.47 296.5V386H1079.47V308.25C1079.47 298.25 1077.89 291 1074.72 286.5C1071.72 281.833 1067.05 279.5 1060.72 279.5C1051.89 279.5 1045.64 283 1041.97 290C1038.3 296.833 1036.47 306.667 1036.47 319.5V386H994.469V308.25C994.469 301.75 993.802 296.417 992.469 292.25C991.135 287.917 989.135 284.75 986.469 282.75C983.802 280.583 980.302 279.5 975.969 279.5C969.802 279.5 964.885 281.25 961.219 284.75C957.719 288.083 955.219 293 953.719 299.5C952.385 306 951.719 314 951.719 323.5V386H909.469V248.75H941.469L947.469 266H949.219C951.885 261.667 955.219 258.083 959.219 255.25C963.219 252.25 967.802 250 972.969 248.5C978.135 247 983.719 246.25 989.719 246.25C999.719 246.25 1008.14 247.917 1014.97 251.25C1021.8 254.583 1027.14 259.417 1030.97 265.75H1033.47C1037.8 259.25 1043.55 254.417 1050.72 251.25C1057.89 247.917 1065.55 246.25 1073.72 246.25ZM1199.28 248.75V386H1157.28V248.75H1199.28ZM1178.53 194.25C1184.53 194.25 1189.78 195.583 1194.28 198.25C1198.78 200.917 1201.03 206.083 1201.03 213.75C1201.03 221.25 1198.78 226.417 1194.28 229.25C1189.78 231.917 1184.53 233.25 1178.53 233.25C1172.19 233.25 1166.78 231.917 1162.28 229.25C1157.94 226.417 1155.78 221.25 1155.78 213.75C1155.78 206.083 1157.94 200.917 1162.28 198.25C1166.78 195.583 1172.19 194.25 1178.53 194.25ZM1315.39 280.25H1284.39V386H1242.39V280.25H1222.89V259.75L1242.89 249V242.5C1242.89 230.667 1244.64 221.333 1248.14 214.5C1251.64 207.5 1256.97 202.5 1264.14 199.5C1271.31 196.333 1280.06 194.75 1290.39 194.75C1297.72 194.75 1304.31 195.333 1310.14 196.5C1315.97 197.667 1321.39 199.083 1326.39 200.75L1316.39 229.75C1313.89 229.083 1311.06 228.417 1307.89 227.75C1304.72 227.083 1301.22 226.75 1297.39 226.75C1292.89 226.75 1289.56 228.167 1287.39 231C1285.39 233.667 1284.39 237.5 1284.39 242.5V248.75H1315.39V280.25ZM1317.49 248.75H1362.49L1387.24 326.5C1387.91 328.5 1388.41 330.583 1388.74 332.75C1389.24 334.75 1389.66 336.917 1389.99 339.25C1390.33 341.417 1390.58 343.75 1390.74 346.25H1391.49C1391.99 342.417 1392.58 338.917 1393.24 335.75C1394.08 332.417 1394.91 329.417 1395.74 326.75L1420.49 248.75H1464.49L1407.99 399.5C1404.33 409.667 1399.66 418.167 1393.99 425C1388.49 432 1381.83 437.25 1373.99 440.75C1366.33 444.25 1357.33 446 1346.99 446C1342.83 446 1339.16 445.75 1335.99 445.25C1332.83 444.917 1330.08 444.5 1327.74 444V410.75C1329.58 411.083 1331.74 411.417 1334.24 411.75C1336.91 412.083 1339.66 412.25 1342.49 412.25C1347.83 412.25 1352.24 411.167 1355.74 409C1359.24 406.833 1362.16 403.917 1364.49 400.25C1366.83 396.75 1368.74 392.917 1370.24 388.75L1371.74 384.5L1317.49 248.75Z" fill="#F43F5E"/>
</g>
<defs>
<clipPath id="clip0_1_2">
<rect width="1510" height="519" fill="white"/>
</clipPath>
</defs>
</svg>
